<svg width="140" height="140" xmlns="http://www.w3.org/2000/svg">

 <title>velero</title>
 <g>
  <title>Layer 1</title>
  <g id="path14">
   <path id="svg_1" fill="#239de0" d="m119.73893,115.283c-4.34532,0 -6.42932,1.6532 -8.84132,3.56775c-2.61867,2.08012 -5.58934,4.43585 -11.32826,4.43585c-5.7396,0 -8.70894,-2.35573 -11.32813,-4.43585c-2.41147,-1.91455 -4.4948,-3.56775 -8.83854,-3.56775c-4.34533,0 -6.42867,1.6532 -8.84013,3.56775c-2.61987,2.08012 -5.58854,4.43585 -11.32814,4.43585s-8.70839,-2.35573 -11.3276,-4.43585c-2.41199,-1.91455 -4.49534,-3.56775 -8.83906,-3.56775s-6.42654,1.6532 -8.83854,3.56775a19.10381,19.10381 0 0 1 -6.38026,3.71452a69.69708,69.69708 0 0 0 40.34333,17.17506c0.41813,0.03441 0.83801,0.06773 1.2588,0.09587c1.5052,0.09732 3.0192,0.164 4.54893,0.164c1.53027,0 3.04427,-0.06668 4.54947,-0.164c0.4208,-0.02814 0.8396,-0.06146 1.25946,-0.09587a69.87987,69.87987 0 0 0 47.17001,-24.06667a12.79175,12.79175 0 0 0 -3.24001,-0.39066" class="cls-1"/>
  </g>
  <g id="path16">
   <path id="svg_2" fill="#239de0" d="m18.9016,63.07101c4.724,0 7.05253,-1.84787 9.51773,-3.8052c2.60053,-2.06454 5.2896,-4.19947 10.6484,-4.19947s8.04787,2.13494 10.64893,4.19947c2.46507,1.95732 4.79321,3.8052 9.51774,3.8052s7.05254,-1.84787 9.51827,-3.8052c2.60053,-2.06454 5.29,-4.19947 10.65,-4.19947c5.35774,0 8.04787,2.13494 10.6484,4.19947c2.46454,1.95732 4.79267,3.8052 9.51827,3.8052s7.0536,-1.84787 9.51892,-3.8052c2.60001,-2.06454 5.29068,-4.19947 10.65068,-4.19947c5.35864,0 8.04933,2.13494 10.65066,4.19947c2.41733,1.91932 4.71867,3.724 9.26401,3.79226a69.43253,69.43253 0 0 0 -4.39067,-18.32346a17.91343,17.91343 0 0 1 -5.77867,-3.43026c-2.51734,-1.99733 -4.89333,-3.88441 -9.74532,-3.88441s-7.22934,1.88708 -9.74533,3.88441c-2.55334,2.02612 -5.192,4.1204 -10.42427,4.1204s-7.87133,-2.0948 -10.42347,-4.1204c-2.5156,-1.99733 -4.89227,-3.88441 -9.7432,-3.88441c-4.8516,0 -7.22919,1.88708 -9.74479,3.88441c-2.55267,2.02612 -5.19121,4.1204 -10.42347,4.1204c-5.23174,0 -7.87027,-2.0948 -10.42241,-4.1204c-2.51614,-1.99733 -4.89267,-3.88441 -9.74427,-3.88441c-4.85106,0 -7.2276,1.88708 -9.7432,3.88441c-2.55266,2.0256 -5.1912,4.1204 -10.42293,4.1204c-5.23227,0 -7.8708,-2.0948 -10.42293,-4.1204c-0.5656,-0.44946 -1.1276,-0.8896 -1.7088,-1.30721a69.42817,69.42817 0 0 0 -5.20681,15.31705c3.552,0.6032 5.7276,2.29014 7.82026,3.9516c2.46507,1.95733 4.79374,3.8052 9.51827,3.8052" class="cls-1"/>
  </g>
  <g id="path18">
   <path id="svg_3" fill="#239de0" d="m18.9016,44.333c4.85106,0 7.22813,-1.88693 9.74373,-3.88387c2.55213,-2.02546 5.19067,-4.12093 10.4224,-4.12093s7.87025,2.09547 10.42239,4.12093c2.51667,1.99693 4.89268,3.88387 9.74427,3.88387s7.22814,-1.88693 9.7448,-3.88387c2.55214,-2.02546 5.19014,-4.12093 10.42347,-4.12093c5.23173,0 7.8692,2.09547 10.42187,4.12093c2.51667,1.99693 4.8932,3.88387 9.7448,3.88387c4.85092,0 7.22826,-1.88693 9.74426,-3.88387c2.55333,-2.02546 5.192,-4.12093 10.42534,-4.12093c5.23199,0 7.87199,2.09547 10.424,4.12093a18.94339,18.94339 0 0 0 4.56133,2.92293a69.97149,69.97149 0 0 0 -127.46387,-4.36826c0.65987,0.46613 1.28187,0.95734 1.8964,1.44534c2.51666,1.99694 4.8932,3.88388 9.7448,3.88388" class="cls-1"/>
  </g>
  <g id="path20">
   <path id="svg_4" fill="#239de0" d="m119.73893,95.81633c-4.472,0 -6.60266,1.69121 -9.06667,3.64787c-2.57335,2.0428 -5.48935,4.35733 -11.10294,4.35733s-8.52866,-2.31453 -11.1016,-4.35733c-2.46613,-1.95667 -4.59534,-3.64787 -9.06506,-3.64787c-4.47132,0 -6.60053,1.69121 -9.06667,3.64787c-2.57293,2.0428 -5.48906,4.35733 -11.1016,4.35733s-8.52866,-2.31453 -11.10161,-4.35733c-2.4656,-1.95667 -4.59427,-3.64787 -9.06506,-3.64787s-6.59947,1.69121 -9.06507,3.64787c-2.57293,2.0428 -5.488,4.35733 -11.10106,4.35733c-5.61254,0 -8.52867,-2.31453 -11.1016,-4.35733c-0.65254,-0.51813 -1.28387,-1.01401 -1.9396,-1.46761a70.27086,70.27086 0 0 0 14.42093,21.22079c3.43013,-0.3156 5.31973,-1.80266 7.4588,-3.50107c2.61973,-2.07866 5.58853,-4.43587 11.3276,-4.43587c5.7396,0 8.70827,2.35721 11.3276,4.43587c2.412,1.91455 4.49533,3.56773 8.83906,3.56773c4.34427,0 6.42706,-1.65318 8.84013,-3.56773c2.61813,-2.07866 5.58854,-4.43587 11.32814,-4.43587s8.70773,2.35721 11.32653,4.43587c2.41306,1.91455 4.4964,3.56773 8.84013,3.56773c4.34425,0 6.42827,-1.65318 8.83893,-3.56773c2.62001,-2.07866 5.59068,-4.43587 11.33067,-4.43587a15.76134,15.76134 0 0 1 5.94533,1.0728a70.11763,70.11763 0 0 0 6.59068,-10.44946a27.05781,27.05781 0 0 1 -3.47067,-2.43961c-2.464,-1.95666 -4.59466,-3.64787 -9.06533,-3.64787" class="cls-1"/>
  </g>
  <g id="path22">
   <path id="svg_5" fill="#239de0" d="m139.79092,64.8778c-5.27066,-0.036 -7.95332,-2.14014 -10.53333,-4.18693c-2.46401,-1.9568 -4.79467,-3.80521 -9.51867,-3.80521c-4.72533,0 -7.05467,1.84841 -9.52,3.80521c-2.59999,2.06453 -5.29066,4.19946 -10.6496,4.19946c-5.36,0 -8.04853,-2.13493 -10.64999,-4.19946c-2.4652,-1.9568 -4.79333,-3.80521 -9.51666,-3.80521c-4.72561,0 -7.05374,1.84841 -9.51827,3.80521c-2.60213,2.06453 -5.29066,4.19946 -10.65,4.19946c-5.3588,0 -8.04787,-2.13493 -10.64893,-4.19946c-2.4652,-1.9568 -4.79319,-3.80521 -9.51773,-3.80521c-4.724,0 -7.05213,1.84841 -9.51773,3.80521c-2.6,2.06453 -5.2896,4.19946 -10.6484,4.19946c-5.35934,0 -8.0484,-2.13493 -10.64893,-4.19946c-1.98654,-1.57668 -3.90627,-3.06573 -7.04014,-3.5912a69.77211,69.77211 0 0 0 -1.1432,10.19946c-0.03493,0.898 -0.06933,1.7948 -0.06933,2.70107s0.0344,1.80413 0.06933,2.70213c0.01454,0.39106 0.02187,0.78426 0.0432,1.17387c4.59014,0.35053 7.19534,2.3792 9.49734,4.2068c2.4136,1.9156 4.69373,3.72546 9.29173,3.72546s6.8776,-1.80986 9.29107,-3.72546c2.52666,-2.00627 5.38906,-4.27867 10.87506,-4.27867s8.34894,2.2724 10.87494,4.27867c2.41413,1.9156 4.69427,3.72546 9.29173,3.72546s6.87814,-1.80986 9.2916,-3.72546c2.52613,-2.00627 5.38906,-4.27867 10.87667,-4.27867c5.48533,0 8.34893,2.2724 10.87439,4.27867c2.41467,1.9156 4.69427,3.72546 9.29227,3.72546c4.59761,0 6.87894,-1.80986 9.29227,-3.72546c2.52666,-2.00627 5.39067,-4.27867 10.87732,-4.27867s8.34934,2.2724 10.87601,4.27867c2.24399,1.7808 4.39732,3.45054 8.37733,3.68027q0.54198,-3.19461 0.78798,-6.47974c0.06534,-0.85627 0.11868,-1.714 0.15068,-2.57813l0,-5.40934c-0.032,-0.8652 -0.14,-2.41827 -0.14,-2.41827" class="cls-1"/>
  </g>
  <g id="path24">
   <path id="svg_6" fill="#239de0" d="m119.73893,76.35126c-4.60001,0 -6.88,1.80986 -9.29333,3.72653c-2.52666,2.0052 -5.39067,4.2776 -10.87627,4.2776c-5.486,0 -8.34906,-2.2724 -10.8756,-4.27761c-2.41348,-1.91666 -4.69373,-3.72653 -9.29107,-3.72653c-4.598,0 -6.8792,1.80987 -9.29333,3.72653c-2.526,2.0052 -5.38907,4.27761 -10.87493,4.27761s-8.34894,-2.2724 -10.87507,-4.27761c-2.414,-1.91666 -4.69426,-3.72653 -9.2916,-3.72653s-6.8776,1.80987 -9.2912,3.72653c-2.526,2.0052 -5.38906,4.27761 -10.87493,4.27761c-5.48546,0 -8.34947,-2.2724 -10.8756,-4.27761c-2.12133,-1.68387 -4.14107,-3.28333 -7.71813,-3.64733a69.41682,69.41682 0 0 0 3.72293,16.9504a19.40583,19.40583 0 0 1 5.8052,3.51827c2.4656,1.95733 4.59427,3.648 9.0656,3.648c4.4708,0 6.6,-1.69067 9.06507,-3.648c2.57293,-2.04214 5.48853,-4.3568 11.10107,-4.3568s8.52867,2.31466 11.1016,4.3568c2.46506,1.95733 4.59426,3.648 9.06506,3.648s6.60054,-1.69067 9.06507,-3.648c2.57293,-2.04214 5.4896,-4.3568 11.1032,-4.3568c5.612,0 8.52866,2.31466 11.10094,4.3568c2.4652,1.95733 4.5944,3.648 9.06573,3.648c4.47093,0 6.60027,-1.69067 9.0656,-3.648c2.57333,-2.04214 5.49068,-4.3568 11.10399,-4.3568c5.612,0 8.52934,2.31466 11.10267,4.3568a25.59594,25.59594 0 0 0 2.86131,2.062a69.3386,69.3386 0 0 0 4.82671,-14.6776c-4.58936,-0.34947 -7.19601,-2.3792 -9.49866,-4.20573c-2.41334,-1.91666 -4.69334,-3.72652 -9.29202,-3.72652" class="cls-1"/>
  </g>
  <g id="path26">
   <path id="svg_7" fill="#fff" d="m108.40826,115.71634c-2.41066,1.91454 -4.49466,3.56773 -8.83893,3.56773c-4.34373,0 -6.42707,-1.6532 -8.84015,-3.56773c-2.61879,-2.07867 -5.58692,-4.43587 -11.32653,-4.43587s-8.71,2.35719 -11.32813,4.43587c-2.41307,1.91454 -4.49586,3.56773 -8.84013,3.56773c-4.34374,0 -6.42707,-1.6532 -8.83907,-3.56773c-2.61935,-2.07867 -5.58801,-4.43587 -11.32761,-4.43587c-5.73906,0 -8.70786,2.35719 -11.3276,4.43587c-2.13906,1.69839 -4.02866,3.18546 -7.4588,3.50105c1.14787,1.15881 2.34267,2.27081 3.5676,3.34787a19.10381,19.10381 0 0 0 6.38026,-3.71452c2.412,-1.91454 4.4948,-3.56773 8.83854,-3.56773s6.42707,1.6532 8.83906,3.56773c2.6192,2.08012 5.58801,4.43587 11.32761,4.43587s8.70827,-2.35574 11.32813,-4.43587c2.41148,-1.91454 4.4948,-3.56773 8.84014,-3.56773c4.34373,0 6.42706,1.6532 8.83853,3.56773c2.6192,2.08012 5.58853,4.43587 11.32813,4.43587c5.73894,0 8.70959,-2.35574 11.32826,-4.43587c2.412,-1.91454 4.496,-3.56773 8.84132,-3.56773a12.79186,12.79186 0 0 1 3.24001,0.39067c0.93199,-1.08028 1.83867,-2.1844 2.70532,-3.3204a15.76114,15.76114 0 0 0 -5.94531,-1.0728c-5.74001,0 -8.71066,2.35719 -11.33067,4.43587" class="cls-2"/>
  </g>
  <g id="path28">
   <path id="svg_8" fill="#fff" d="m119.73893,92.54233c-5.61333,0 -8.53067,2.31467 -11.104,4.35681c-2.46533,1.95734 -4.59465,3.64799 -9.0656,3.64799c-4.47133,0 -6.60052,-1.69066 -9.06573,-3.64799c-2.57226,-2.04213 -5.48893,-4.35681 -11.10093,-4.35681c-5.6136,0 -8.53027,2.31467 -11.1032,4.35681c-2.46454,1.95734 -4.59427,3.64799 -9.06506,3.64799s-6.6,-1.69066 -9.06507,-3.64799c-2.57293,-2.04213 -5.48906,-4.35681 -11.1016,-4.35681s-8.52814,2.31467 -11.10108,4.35681c-2.46506,1.95734 -4.59426,3.64799 -9.06506,3.64799c-4.47134,0 -6.6,-1.69066 -9.0656,-3.64799a19.40624,19.40624 0 0 0 -5.8052,-3.51827q0.83359,2.3478 1.8296,4.61573c0.65573,0.4536 1.28707,0.94946 1.9396,1.46761c2.57293,2.0428 5.48906,4.35733 11.1016,4.35733c5.61306,0 8.52813,-2.31453 11.10106,-4.35733c2.4656,-1.95667 4.59427,-3.64787 9.06507,-3.64787s6.59946,1.69121 9.06506,3.64787c2.57294,2.0428 5.48907,4.35733 11.10161,4.35733s8.52867,-2.31453 11.1016,-4.35733c2.46613,-1.95667 4.59534,-3.64787 9.06667,-3.64787c4.46973,0 6.59894,1.69121 9.06506,3.64787c2.57294,2.0428 5.48801,4.35733 11.1016,4.35733s8.52962,-2.31453 11.10294,-4.35733c2.464,-1.95667 4.59465,-3.64787 9.06667,-3.64787c4.47067,0 6.60133,1.69121 9.06533,3.64787a27.05807,27.05807 0 0 0 3.47067,2.43959q0.74799,-1.45218 1.42799,-2.94266a25.5941,25.5941 0 0 1 -2.86131,-2.062c-2.57336,-2.04214 -5.49068,-4.3568 -11.10267,-4.3568" class="cls-2"/>
  </g>
  <g id="path30">
   <path id="svg_9" fill="#fff" d="m119.73893,73.80434c-5.48666,0 -8.35066,2.27239 -10.87733,4.27867c-2.41333,1.9156 -4.69466,3.72546 -9.29227,3.72546c-4.59799,0 -6.87759,-1.80986 -9.29227,-3.72546c-2.52546,-2.00627 -5.38906,-4.27867 -10.8744,-4.27867c-5.48759,0 -8.35053,2.27239 -10.87666,4.27867c-2.41347,1.9156 -4.69427,3.72546 -9.2916,3.72546s-6.87759,-1.80986 -9.29174,-3.72546c-2.52599,-2.00627 -5.38907,-4.27867 -10.87492,-4.27867s-8.34893,2.27239 -10.87506,4.27867c-2.414,1.9156 -4.69321,3.72546 -9.29107,3.72546c-4.59746,0 -6.87813,-1.80986 -9.29173,-3.72546c-2.302,-1.8276 -4.9072,-3.85627 -9.49733,-4.2068c0.0468,0.85626 0.1172,1.7068 0.19533,2.55426c3.57707,0.36401 5.5968,1.96347 7.71813,3.64733c2.52613,2.0052 5.39013,4.2776 10.8756,4.2776c5.48587,0 8.34893,-2.2724 10.87494,-4.27761c2.41359,-1.91666 4.69373,-3.72653 9.2912,-3.72653s6.8776,1.80987 9.2916,3.72653c2.52612,2.0052 5.38905,4.27761 10.87505,4.27761s8.34895,-2.2724 10.87495,-4.27761c2.41412,-1.91666 4.69533,-3.72653 9.29333,-3.72653c4.59733,0 6.8776,1.80987 9.29107,3.72653c2.52653,2.0052 5.3896,4.27761 10.8756,4.27761c5.4856,0 8.34959,-2.2724 10.87625,-4.27761c2.41333,-1.91666 4.69333,-3.72653 9.29333,-3.72653c4.59866,0 6.87866,1.80987 9.29202,3.72653c2.30264,1.82653 4.9093,3.85627 9.49866,4.20573c0.17467,-0.83333 0.32001,-1.67653 0.46266,-2.5208c-3.98,-0.2292 -6.13335,-1.89893 -8.37733,-3.67974c-2.52666,-2.00626 -5.38934,-4.27867 -10.876,-4.27867" class="cls-2"/>
  </g>
  <g id="path32">
   <path id="svg_10" fill="#fff" d="m18.9016,64.89034c5.3588,0 8.0484,-2.13493 10.6484,-4.19946c2.46507,-1.9568 4.79374,-3.8052 9.51773,-3.8052c4.72454,0 7.05253,1.8484 9.51773,3.8052c2.60107,2.06453 5.29014,4.19946 10.64893,4.19946s8.04787,-2.13493 10.65,-4.19946c2.46453,-1.9568 4.79266,-3.8052 9.51826,-3.8052c4.72334,0 7.05147,1.8484 9.51667,3.8052c2.60146,2.06453 5.28999,4.19946 10.64999,4.19946c5.35895,0 8.04959,-2.13493 10.6496,-4.19946c2.46533,-1.9568 4.79466,-3.8052 9.51999,-3.8052c4.72401,0 7.05467,1.8484 9.51865,3.8052c2.58002,2.0468 5.2627,4.15666 10.53336,4.19267l-0.01067,-0.16666c-0.04134,-0.55307 -0.07201,-1.10933 -0.12665,-1.65881c-4.54533,-0.06827 -6.84668,-1.87292 -9.26401,-3.79227c-2.60134,-2.06453 -5.292,-4.19946 -10.65067,-4.19946c-5.36,0 -8.05066,2.13494 -10.65067,4.19946c-2.46533,1.95734 -4.79332,3.8052 -9.51892,3.8052s-7.05374,-1.84786 -9.51827,-3.8052c-2.60054,-2.06453 -5.29067,-4.19946 -10.6484,-4.19946c-5.36,0 -8.04946,2.13494 -10.65,4.19946c-2.46573,1.95734 -4.79373,3.8052 -9.51827,3.8052s-7.05267,-1.84786 -9.51772,-3.8052c-2.60107,-2.06453 -5.29015,-4.19946 -10.64893,-4.19946s-8.04787,2.13494 -10.6484,4.19946c-2.46521,1.95734 -4.79374,3.8052 -9.51774,3.8052c-4.72453,0 -7.05319,-1.84786 -9.51826,-3.8052c-2.09267,-1.66146 -4.26827,-3.34839 -7.82027,-3.9516c-0.12653,0.59172 -0.2396,1.18866 -0.35053,1.78547c3.13386,0.52546 5.0536,2.01453 7.04013,3.5912c2.60053,2.06453 5.2896,4.19946 10.64893,4.19946" class="cls-2"/>
  </g>
  <g id="path34">
   <path id="svg_11" fill="#fff" d="m18.9016,45.42474c5.23173,0 7.87026,-2.0948 10.42293,-4.1204c2.5156,-1.99733 4.89213,-3.8844 9.7432,-3.8844c4.8516,0 7.22813,1.88707 9.74426,3.8844c2.55213,2.0256 5.19067,4.1204 10.4224,4.1204c5.23226,0 7.8708,-2.09426 10.42347,-4.1204c2.5156,-1.99733 4.89319,-3.8844 9.7448,-3.8844c4.85093,0 7.22758,1.88707 9.74319,3.8844c2.55213,2.0256 5.19107,4.1204 10.42348,4.1204s7.87093,-2.09426 10.42426,-4.1204c2.51599,-1.99733 4.89333,-3.8844 9.74533,-3.8844s7.228,1.88707 9.74534,3.8844a17.91379,17.91379 0 0 0 5.77866,3.43027c-0.17734,-0.45574 -0.35336,-0.91201 -0.53868,-1.36255a18.94339,18.94339 0 0 1 -4.56133,-2.92294c-2.55199,-2.02546 -5.19201,-4.12092 -10.424,-4.12092c-5.23332,0 -7.87199,2.09547 -10.42534,4.12092c-2.51601,1.99694 -4.89333,3.88388 -9.74426,3.88388c-4.85161,0 -7.22813,-1.88693 -9.7448,-3.88388c-2.55267,-2.02546 -5.19013,-4.12092 -10.42186,-4.12092c-5.23335,0 -7.87133,2.09547 -10.42347,4.12092c-2.51667,1.99694 -4.8932,3.88388 -9.7448,3.88388s-7.2276,-1.88693 -9.74427,-3.88388c-2.55214,-2.02546 -5.19067,-4.12093 -10.4224,-4.12093s-7.87027,2.09547 -10.4224,4.12093c-2.5156,1.99693 -4.89267,3.88387 -9.74373,3.88387c-4.8516,0 -7.22814,-1.88693 -9.7448,-3.88387c-0.61454,-0.488 -1.23653,-0.9792 -1.8964,-1.44534c-0.16454,0.33133 -0.3312,0.66 -0.49053,0.99334c0.5812,0.41759 1.1432,0.85773 1.7088,1.3072c2.55213,2.0256 5.19066,4.1204 10.42293,4.1204" class="cls-2"/>
  </g>
 </g>
</svg>